<?xml version="1.0" encoding="UTF-8" standalone="no"?>
<!-- Created with Inkscape (http://www.inkscape.org/) -->

<svg
   xmlns:dc="http://purl.org/dc/elements/1.1/"
   xmlns:cc="http://creativecommons.org/ns#"
   xmlns:rdf="http://www.w3.org/1999/02/22-rdf-syntax-ns#"
   xmlns:svg="http://www.w3.org/2000/svg"
   xmlns="http://www.w3.org/2000/svg"
   xmlns:sodipodi="http://sodipodi.sourceforge.net/DTD/sodipodi-0.dtd"
   xmlns:inkscape="http://www.inkscape.org/namespaces/inkscape"
   width="204.8631mm"
   height="204.8631mm"
   viewBox="0 0 204.8631 204.8631"
   version="1.1"
   id="svg8"
   sodipodi:docname="logo.svg"
   inkscape:version="0.92.5 (2060ec1f9f, 2020-04-08)">
  <defs
     id="defs2" />
  <sodipodi:namedview
     id="base"
     pagecolor="#ffffff"
     bordercolor="#666666"
     borderopacity="1.0"
     inkscape:pageopacity="0.0"
     inkscape:pageshadow="2"
     inkscape:zoom="0.35"
     inkscape:cx="-108.57141"
     inkscape:cy="294.28572"
     inkscape:document-units="mm"
     inkscape:current-layer="layer1"
     showgrid="false"
     showborder="false"
     inkscape:window-width="1366"
     inkscape:window-height="704"
     inkscape:window-x="0"
     inkscape:window-y="27"
     inkscape:window-maximized="1"
     inkscape:snap-global="false"
     fit-margin-top="0"
     fit-margin-left="0"
     fit-margin-right="0"
     fit-margin-bottom="0" />
  <metadata
     id="metadata5">
    <rdf:RDF>
      <cc:Work
         rdf:about="">
        <dc:format>image/svg+xml</dc:format>
        <dc:type
           rdf:resource="http://purl.org/dc/dcmitype/StillImage" />
        <dc:title />
      </cc:Work>
    </rdf:RDF>
  </metadata>
  <g
     inkscape:label="Layer 1"
     inkscape:groupmode="layer"
     id="layer1"
     transform="translate(140.60715,-27.880949)">
    <rect
       style="opacity:1;fill:#ffffff;fill-opacity:1;stroke:none;stroke-width:0.26499999;stroke-linecap:round;stroke-linejoin:round;stroke-miterlimit:4;stroke-dasharray:none;stroke-opacity:1"
       id="rect815"
       width="204.8631"
       height="204.8631"
       x="-140.60715"
       y="27.880949"
       ry="102.43155" />
    <g
       id="g910"
       transform="translate(-1.5118051,-1.2714279e-4)">
      <path
         id="rect817"
         d="M -39.720505,95.176865 H 74.077263 c 4.704015,0 8.491001,3.786986 8.491001,8.491005 v 75.8279 c 0,4.70401 -3.786986,8.491 -8.491001,8.491 H -39.720505 c -4.704014,0 -8.491001,-3.78699 -8.491001,-8.491 v -75.8279 c 0,-4.704019 3.786987,-8.491005 8.491001,-8.491005 z"
         style="opacity:1;fill:#ff0000;fill-opacity:1;stroke:none;stroke-width:0.14251138;stroke-linecap:round;stroke-linejoin:round;stroke-miterlimit:4;stroke-dasharray:none;stroke-opacity:1"
         transform="matrix(1,0,-0.39096811,0.92040422,0,0)"
         inkscape:connector-curvature="0" />
      <path
         id="rect819"
         transform="scale(0.26458333)"
         d="M -240,331.0918 -377.14258,653.94922 H 2.1933594 c 17.7789546,0 37.6876746,-13.17526 44.6386716,-29.53906 L 158.88086,360.62891 c 6.95101,-16.36384 -1.76597,-29.53711 -19.54492,-29.53711 z"
         style="opacity:1;fill:#ff6600;fill-opacity:1;stroke:none;stroke-width:0.51674515;stroke-linecap:round;stroke-linejoin:round;stroke-miterlimit:4;stroke-dasharray:none;stroke-opacity:1"
         inkscape:connector-curvature="0" />
      <path
         id="rect821"
         transform="scale(0.26458333)"
         d="M -162.85742,331.0918 -300,653.94922 H 2.1933594 c 17.7789546,0 37.6876746,-13.17526 44.6386716,-29.53906 L 158.88086,360.62891 c 6.95101,-16.36384 -1.76597,-29.53711 -19.54492,-29.53711 z"
         style="opacity:1;fill:#ffcc00;fill-opacity:1;stroke:none;stroke-width:0.51674515;stroke-linecap:round;stroke-linejoin:round;stroke-miterlimit:4;stroke-dasharray:none;stroke-opacity:1"
         inkscape:connector-curvature="0" />
      <path
         id="rect823"
         transform="scale(0.26458333)"
         d="M -97.142578,331.0918 -234.28516,653.94922 H 2.1933594 c 17.7789546,0 37.6876746,-13.17526 44.6386716,-29.53906 L 158.88086,360.62891 c 6.95101,-16.36384 -1.76597,-29.53711 -19.54492,-29.53711 z"
         style="opacity:1;fill:#55d400;fill-opacity:1;stroke:none;stroke-width:0.51674515;stroke-linecap:round;stroke-linejoin:round;stroke-miterlimit:4;stroke-dasharray:none;stroke-opacity:1"
         inkscape:connector-curvature="0" />
      <path
         id="rect825"
         transform="scale(0.26458333)"
         d="M -42.857422,331.0918 -180,653.94922 H 2.1933594 c 17.7789546,0 37.6876746,-13.17526 44.6386716,-29.53906 L 158.88086,360.62891 c 6.95101,-16.36384 -1.76597,-29.53711 -19.54492,-29.53711 z"
         style="opacity:1;fill:#87decd;fill-opacity:1;stroke:none;stroke-width:0.51674515;stroke-linecap:round;stroke-linejoin:round;stroke-miterlimit:4;stroke-dasharray:none;stroke-opacity:1"
         inkscape:connector-curvature="0" />
      <path
         id="rect827"
         transform="scale(0.26458333)"
         d="M 11.427734,331.0918 -125.71484,653.94922 H 2.1933594 c 17.7789546,0 37.6876746,-13.17526 44.6386716,-29.53906 L 158.88086,360.62891 c 6.95101,-16.36384 -1.76597,-29.53711 -19.54492,-29.53711 z"
         style="opacity:1;fill:#5555ff;fill-opacity:1;stroke:none;stroke-width:0.51674515;stroke-linecap:round;stroke-linejoin:round;stroke-miterlimit:4;stroke-dasharray:none;stroke-opacity:1"
         inkscape:connector-curvature="0" />
      <path
         inkscape:connector-curvature="0"
         id="rect829"
         d="m 22.678423,87.601371 -36.28564,85.422689 H 3.6041359 c 4.704015,0 9.9715301,-3.48595 11.8106481,-7.81554 L 45.061036,95.416398 c 1.839122,-4.329599 -0.467246,-7.815027 -5.17126,-7.815027 z"
         style="opacity:1;fill:#5a2ca0;fill-opacity:1;stroke:none;stroke-width:0.13672215;stroke-linecap:round;stroke-linejoin:round;stroke-miterlimit:4;stroke-dasharray:none;stroke-opacity:1" />
    </g>
  </g>
</svg>
